<?xml version="1.0" standalone="no"?>
<!DOCTYPE svg PUBLIC "-//W3C//DTD SVG 20010904//EN"
 "http://www.w3.org/TR/2001/REC-SVG-20010904/DTD/svg10.dtd">
<svg version="1.0" xmlns="http://www.w3.org/2000/svg"
 width="225.000000pt" height="225.000000pt" viewBox="0 0 225.000000 225.000000"
 preserveAspectRatio="xMidYMid meet">
<metadata>
Created by potrace 1.11, written by Peter Selinger 2001-2013
</metadata>
<g transform="translate(0.000000,225.000000) scale(0.100000,-0.100000)"
fill="#000000" stroke="none">
<path d="M382 1852 l-303 -297 0 -425 1 -425 298 -297 297 -298 430 1 430 0
303 298 302 298 0 422 0 422 -202 197 c-334 326 -352 343 -386 373 l-33 29
-417 0 -417 0 -303 -298z m1441 -35 l298 -292 -1 -399 0 -399 -297 -293 -298
-293 -419 -1 -419 0 -289 287 -288 287 0 416 0 415 287 282 288 283 420 0 420
0 298 -293z"/>
<path d="M456 1768 l-266 -262 0 -375 0 -376 267 -262 268 -262 383 -1 384 0
196 194 c108 106 230 225 270 263 l72 70 0 373 0 373 -22 19 c-13 11 -134 129
-269 264 l-246 244 -385 0 -386 0 -266 -262z m1227 -74 l237 -235 0 -328 0
-327 -237 -237 -238 -237 -335 0 -336 0 -237 231 -237 231 0 336 0 336 233
232 232 232 340 1 340 0 238 -235z"/>
<path d="M1084 1861 c-71 -18 -124 -87 -124 -159 1 -69 85 -151 156 -152 48 0
99 25 133 67 92 111 -22 280 -165 244z m54 -43 c-4 -37 -22 -47 -37 -19 -14
26 -4 51 21 51 16 0 19 -6 16 -32z m-71 -53 c-5 -13 -11 -14 -27 -5 -27 15
-37 40 -19 51 19 11 54 -24 46 -46z m158 45 c7 -12 -30 -50 -50 -50 -18 0 -19
14 -5 41 11 20 45 26 55 9z m-58 -82 c16 -33 9 -52 -24 -67 -35 -16 -73 8 -73
47 0 37 18 54 55 50 21 -2 34 -11 42 -30z m98 2 c8 -13 -12 -40 -29 -40 -7 0
-21 7 -32 15 -16 13 -17 16 -4 25 20 13 57 13 65 0z m-225 -10 c10 -6 11 -12
5 -18 -17 -16 -49 -22 -64 -13 -12 8 -12 12 -2 25 15 18 39 20 61 6z m37 -66
c9 -23 -30 -59 -51 -47 -15 8 -15 12 4 36 24 31 38 34 47 11z m143 -2 c24 -20
20 -42 -7 -42 -17 0 -42 28 -43 48 0 18 24 15 50 -6z m-75 -48 c0 -19 -6 -30
-17 -32 -21 -4 -34 34 -17 54 18 22 34 11 34 -22z"/>
<path d="M925 1501 c-76 -35 -125 -76 -125 -105 0 -39 58 -105 93 -106 16 0
14 6 -12 37 -17 21 -31 45 -31 54 0 28 36 64 94 93 108 55 91 79 -19 27z"/>
<path d="M1225 1521 c3 -6 25 -20 50 -32 68 -34 115 -77 115 -104 0 -14 -14
-40 -31 -60 -28 -31 -29 -35 -11 -35 46 0 100 75 88 123 -3 13 -24 36 -46 51
-67 44 -182 84 -165 57z"/>
<path d="M1014 1492 c-87 -49 -106 -82 -78 -139 19 -37 66 -74 80 -61 4 4 -8
24 -25 44 -48 54 -38 81 55 151 35 26 13 30 -32 5z"/>
<path d="M1180 1502 c0 -5 20 -22 45 -40 24 -17 47 -42 51 -56 6 -27 -19 -84
-42 -93 -20 -7 -18 -23 4 -23 31 0 82 67 82 108 0 30 -35 67 -85 91 -50 23
-55 25 -55 13z"/>
<path d="M1057 1462 c-39 -41 -38 -103 2 -143 26 -26 51 -38 51 -24 0 2 -9 19
-20 37 -24 39 -26 87 -5 114 16 21 20 44 7 44 -5 0 -20 -13 -35 -28z"/>
<path d="M1130 1484 c0 -3 9 -17 20 -31 26 -33 26 -87 -1 -125 -12 -16 -18
-32 -15 -35 12 -13 61 35 73 71 14 41 8 62 -30 104 -19 20 -47 30 -47 16z"/>
<path d="M823 1238 c-21 -28 -22 -49 -3 -68 19 -19 34 -20 295 -20 l275 0 16
25 c15 23 15 27 0 50 l-16 25 -279 0 c-211 0 -281 -3 -288 -12z"/>
<path d="M893 1123 c-7 -2 -13 -11 -13 -19 0 -12 38 -14 231 -14 214 0 230 1
227 18 -3 15 -22 17 -218 19 -118 1 -221 -1 -227 -4z"/>
<path d="M1040 1051 c-419 -6 -424 -7 -472 -49 -10 -8 -18 -19 -18 -24 0 -4
255 -8 568 -8 l567 1 -32 29 c-36 33 -85 50 -158 54 -27 1 -232 0 -455 -3z"/>
<path d="M524 925 c-4 -8 -3 -35 0 -60 7 -45 8 -45 47 -45 l39 0 -15 24 c-23
34 -5 66 35 66 23 0 31 -5 36 -26 4 -14 2 -30 -5 -37 -21 -21 -11 -27 49 -27
60 0 60 0 46 23 -17 27 -6 62 22 69 22 6 30 2 50 -24 11 -14 11 -21 -3 -42
l-17 -26 62 0 62 0 -16 25 c-23 35 -6 65 35 65 38 0 54 -34 33 -67 -14 -23
-14 -23 46 -23 60 0 70 6 49 27 -7 7 -9 23 -5 37 5 20 13 26 34 26 49 0 67
-37 35 -72 -15 -17 -13 -18 52 -18 67 0 68 0 51 19 -22 24 -18 49 10 68 19 12
24 11 45 -6 23 -19 24 -21 7 -50 l-17 -31 66 0 c63 0 65 1 50 18 -30 33 -15
72 28 72 43 0 58 -39 28 -72 -15 -17 -13 -18 50 -18 66 0 78 5 56 27 -7 7 -9
23 -5 38 6 22 11 26 38 23 37 -4 56 -39 33 -62 -23 -22 -18 -27 23 -24 l37 3
0 55 0 55 -583 3 c-514 2 -583 0 -588 -13z"/>
<path d="M556 753 c9 -21 18 -43 21 -50 3 -7 12 -14 21 -17 10 -2 247 -3 527
-3 l510 2 22 45 c12 25 22 48 23 53 0 4 -257 7 -570 7 l-570 0 16 -37z"/>
<path d="M640 641 c0 -29 149 -125 166 -108 3 3 -8 24 -25 48 -17 23 -31 48
-31 56 0 9 -15 13 -55 13 -30 0 -55 -4 -55 -9z"/>
<path d="M790 630 c0 -41 58 -109 93 -110 22 0 22 13 -2 34 -10 9 -26 34 -36
56 -20 44 -55 56 -55 20z"/>
<path d="M886 641 c-18 -29 42 -131 76 -131 47 1 46 32 -2 99 -28 39 -61 53
-74 32z"/>
<path d="M993 615 c7 -43 40 -91 67 -98 23 -6 29 20 6 29 -8 3 -22 28 -31 55
-10 31 -22 49 -32 49 -12 0 -14 -8 -10 -35z"/>
<path d="M1070 630 c-9 -16 -7 -29 7 -57 26 -54 47 -63 72 -32 27 32 34 55 27
85 -6 21 -12 24 -51 24 -34 0 -47 -5 -55 -20z"/>
<path d="M1203 593 c-15 -32 -29 -61 -31 -65 -2 -5 3 -8 12 -8 18 0 65 69 69
101 5 45 -23 29 -50 -28z"/>
<path d="M1298 633 c-37 -42 -57 -86 -47 -105 14 -26 37 -22 70 13 36 38 42
109 11 109 -11 0 -26 -8 -34 -17z"/>
<path d="M1404 623 c-9 -16 -25 -40 -35 -55 -24 -35 -24 -48 1 -48 25 0 80 74
80 107 0 32 -26 30 -46 -4z"/>
<path d="M1467 588 c-21 -33 -36 -62 -34 -64 9 -9 106 50 142 86 l39 40 -54 0
-55 -1 -38 -61z"/>
<path d="M798 433 c-2 -32 -3 -61 -1 -65 3 -5 148 -8 324 -8 l319 0 0 65 0 65
-319 0 -319 0 -4 -57z"/>
</g>
</svg>
